# xmcd CD database file
#
# Track frame offsets:
#	150
#	16928
#	33278
#	48965
#	64520
#	81730
#	92580
#	105632
#	119115
#	138295
#	152110
#	166500
#
# Disc length: 2360 seconds
#
# Revision: 0
# Processed by: cddbd v1.5.2PL0 Copyright (c) Steve Scherf et al.
# Submitted via: CDex 1.51
#
DISCID=9209360c
DTITLE=Burnside/Nelson/Mater - Light Piano Jazz Christmas
DYEAR=2008
DGENRE=Jazz
TTITLE0=God Rest Ye Merry Gentlemen
TTITLE1=Carol of the Bells
TTITLE2=What Child Is This
TTITLE3=Fum Fum Fum
TTITLE4=Up On A Housetop
TTITLE5=The Holy and The Ivy
TTITLE6=Here We Come A Wassailing
TTITLE7=Dance of the Sugar Plum Fairy
TTITLE8=Jingle Bells
TTITLE9=Silent Night
TTITLE10=Deck The Halls
TTITLE11=Auld Lang Syne
EXTD=YEAR: 2008
EXTT0=
EXTT1=
EXTT2=
EXTT3=
EXTT4=
EXTT5=
EXTT6=
EXTT7=
EXTT8=
EXTT9=
EXTT10=
EXTT11=
PLAYORDER=
